<?xml version="1.0" encoding="UTF-8"?>
<svg version="1.1" viewBox="0 0 100 100" xmlns="http://www.w3.org/2000/svg">
    <g>
        <circle cx="50" cy="50" r="50" fill="#1a202c" style="paint-order:markers fill stroke"/>
        <circle cx="50" cy="50" r="40" fill="#edf2f7" stroke-width=".801" style="paint-order:markers fill stroke"/>
        <path d="m27.1 22v36.6c0 1.1-0.872 1.79-1.97 1.63-0.344-0.0473-0.689-0.0866-1.04-0.118-1.1-0.0986-2.89-0.0989-3.99-0.0013-6.36 0.564-11.5 3.79-12.7 7.94-0.316 1.05-0.316 2.89-1e-7 3.94 1.25 4.15 6.35 7.38 12.7 7.94 1.1 0.0976 2.89 0.0976 3.99 0 6.36-0.564 11.5-3.79 12.7-7.94 0.316-1.05 0.291-2.87 0.291-3.97v-34.4c0-1.1 0.755-1.51 1.61-0.811 0.842 0.693 1.9 1.67 2.86 2.87 0.688 0.862 1.6 2.41 2.01 3.44 0.769 1.91 1.38 4.24 1.75 5.86 0.249 1.08 1.31 1.96 2.42 1.96h4.45c1.1 0 2.17-0.88 2.42-1.96 0.375-1.62 0.985-3.96 1.75-5.86 0.413-1.02 1.32-2.58 2.01-3.44 0.962-1.2 2.02-2.18 2.86-2.87 0.852-0.7 1.61-0.292 1.61 0.813v34.4c0 1.1-0.0248 2.92 0.291 3.97 1.25 4.15 6.35 7.38 12.7 7.94 1.1 0.0976 2.89 0.0976 3.99 0 6.36-0.564 11.5-3.79 12.7-7.94 0.316-1.05 0.316-2.89 0-3.94-1.25-4.15-6.35-7.38-12.7-7.94-1.1-0.0976-2.89-0.0973-3.99 0.0013-0.348 0.0312-0.694 0.0704-1.04 0.118-1.09 0.151-1.97-0.53-1.97-1.63v-36.6a2 2 45 0 0-2-2h-6c-1.1 0-2.9 0.134-3.9 0.597-2.11 0.981-5.81 3.57-10.2 10.4-0.0073 0.0112-0.0191 0.0294-0.0264 0.0407-0.409 0.632-0.999 0.622-1.42-0.0204-5.06-7.26-8.33-9.51-10.3-10.4-0.997-0.464-2.79-0.597-3.9-0.597h-6a2 2 135 0 0-2 2z" fill="#1a202c"/>
    </g>
</svg>
