<?xml version="1.0" encoding="UTF-8"?>
<!-- Created with Inkscape (http://www.inkscape.org/) -->
<svg width="100" height="100" version="1.1" viewBox="0 0 100 100" xmlns="http://www.w3.org/2000/svg"><g transform="matrix(1.11 0 0 1.11 -14 2.67)" stroke="#003352"><path d="m47.3 0a32.3 31.9 0 0 0-32.3 31.9 32.3 31.9 0 0 0 17 28v25.1l22.1-22.1a32.3 31.9 0 0 0 25.2-27.7c1.49-1.08 2.95-2.15 4.3-3.16 8.73-6.53 16.4-19.5 16.4-19.5 0 0-6.46 6.59-21.9 8.8-0.0685 0.0098-0.131 0.0231-0.199 0.0332 8.99-8.13 18.1-20.8 18.1-20.8s-11.8 6.35-25 9.72a32.3 31.9 0 0 0-23.7-10.3z" fill="#1da1f2" stroke-linejoin="round" stroke-width="3"/><rect x="47.3" y="12.8" width="6.8" height="21.2" ry="3.4" fill="#fff" stroke-width="2" style="paint-order:fill markers stroke"/><rect x="57.5" y="12.8" width="6.8" height="21.2" ry="3.4" fill="#fff" stroke-width="2" style="paint-order:fill markers stroke"/></g></svg>
